<svg xmlns="http://www.w3.org/2000/svg" xmlns:xlink="http://www.w3.org/1999/xlink" width="1536" zoomAndPan="magnify" viewBox="0 0 1152 777.749999" height="1037" preserveAspectRatio="xMidYMid meet" version="1.0"><defs><clipPath id="ae07c2d33e"><path d="M 361.117188 4.96875 L 657.273438 4.96875 L 657.273438 772.722656 L 361.117188 772.722656 Z M 361.117188 4.96875 " clip-rule="nonzero"/></clipPath><clipPath id="b283c760a4"><path d="M 475 321 L 657.273438 321 L 657.273438 772 L 475 772 Z M 475 321 " clip-rule="nonzero"/></clipPath></defs><g clip-path="url(#ae07c2d33e)"><path fill="#ffffff" d="M 361.121094 4.96875 C 364.660156 5.535156 366.632812 6.929688 369.261719 9.269531 C 369.683594 9.640625 370.105469 10.007812 370.539062 10.386719 C 371.847656 11.53125 373.148438 12.691406 374.445312 13.851562 C 374.816406 14.183594 375.191406 14.511719 375.578125 14.855469 C 381.289062 19.925781 386.707031 25.300781 392.117188 30.691406 C 392.777344 31.347656 393.4375 32.003906 394.117188 32.679688 C 397.828125 36.402344 401.371094 40.207031 404.789062 44.199219 C 405.867188 45.386719 406.945312 46.574219 408.027344 47.761719 C 411.53125 51.644531 414.835938 55.667969 418.113281 59.742188 C 418.789062 60.570312 419.464844 61.402344 420.144531 62.230469 C 424.28125 67.324219 428.28125 72.503906 432.175781 77.78125 C 432.5625 78.304688 432.949219 78.828125 433.34375 79.363281 C 440.859375 89.625 448.074219 100.089844 455.121094 110.675781 C 455.507812 111.257812 455.898438 111.835938 456.296875 112.4375 C 462.078125 121.128906 467.738281 129.855469 472.886719 138.941406 C 473.5 140.019531 473.5 140.019531 474.125 141.125 C 476.796875 145.847656 479.441406 150.582031 482.074219 155.324219 C 483.097656 157.171875 484.125 159.011719 485.160156 160.851562 C 487.007812 164.148438 488.835938 167.453125 490.648438 170.765625 C 491.035156 171.46875 491.421875 172.171875 491.816406 172.898438 C 503.433594 194.15625 514.316406 215.824219 524.324219 237.886719 C 525.4375 240.34375 526.566406 242.792969 527.695312 245.242188 C 539.8125 271.703125 550.347656 298.839844 560.226562 326.203125 C 560.445312 326.808594 560.664062 327.414062 560.890625 328.039062 C 563.949219 336.53125 566.9375 345.042969 569.847656 353.589844 C 570.109375 354.355469 570.109375 354.355469 570.375 355.140625 C 580.464844 384.816406 588.476562 415.027344 595.308594 445.605469 C 595.734375 447.5 596.164062 449.394531 596.59375 451.285156 C 602.441406 476.953125 606.964844 502.832031 609.816406 529.007812 C 609.902344 529.75 609.992188 530.488281 610.078125 531.25 C 611.84375 546.480469 611.441406 561.816406 611.296875 577.117188 C 610.808594 577.117188 610.320312 577.117188 609.816406 577.117188 C 609.753906 576.707031 609.691406 576.292969 609.628906 575.867188 C 606.320312 553.960938 602.621094 532.175781 598.253906 510.457031 C 598.054688 509.46875 597.855469 508.480469 597.65625 507.488281 C 594.960938 494.054688 592.039062 480.675781 588.972656 467.324219 C 588.382812 464.742188 587.804688 462.160156 587.230469 459.574219 C 584.703125 448.25 581.6875 437.117188 578.40625 425.984375 C 578.023438 424.679688 578.023438 424.679688 577.632812 423.347656 C 560.484375 364.886719 539.132812 308.28125 513.566406 252.980469 C 512.847656 251.429688 512.132812 249.878906 511.417969 248.324219 C 501.535156 226.890625 490.695312 206 479.59375 185.175781 C 479.066406 184.183594 478.539062 183.191406 478.011719 182.203125 C 477.757812 181.726562 477.503906 181.25 477.246094 180.757812 C 475.71875 177.878906 474.246094 174.976562 472.808594 172.050781 C 470.648438 167.695312 468.242188 163.519531 465.761719 159.339844 C 464.84375 157.777344 463.921875 156.214844 463.003906 154.652344 C 462.546875 153.875 462.09375 153.101562 461.625 152.304688 C 460.039062 149.585938 458.484375 146.855469 456.933594 144.117188 C 450.457031 132.671875 443.769531 121.324219 436.382812 110.4375 C 433.941406 106.835938 431.617188 103.167969 429.308594 99.480469 C 414.707031 76.230469 398.023438 54.648438 381.050781 33.101562 C 377.578125 28.683594 374.15625 24.230469 370.742188 19.773438 C 369.523438 20.015625 368.300781 20.261719 367.042969 20.511719 C 366.761719 31.449219 367.542969 41.886719 369.101562 52.703125 C 369.320312 54.273438 369.539062 55.84375 369.753906 57.414062 C 370.210938 60.695312 370.675781 63.976562 371.144531 67.257812 C 371.730469 71.34375 372.300781 75.433594 372.867188 79.523438 C 375.191406 96.304688 377.691406 113.046875 380.53125 129.75 C 380.648438 130.457031 380.769531 131.164062 380.894531 131.890625 C 382.894531 143.664062 385.226562 155.351562 387.925781 166.980469 C 388.246094 168.375 388.566406 169.773438 388.886719 171.167969 C 389.148438 172.300781 389.148438 172.300781 389.414062 173.457031 C 390.050781 176.222656 390.679688 178.992188 391.308594 181.761719 C 409.585938 262.710938 409.585938 262.710938 440.320312 376.535156 C 440.679688 377.730469 440.679688 377.730469 441.046875 378.953125 C 450.324219 409.785156 460.707031 440.207031 472.488281 470.175781 C 473.824219 473.578125 475.136719 476.988281 476.429688 480.410156 C 481.746094 494.398438 487.953125 507.933594 494.328125 521.464844 C 495.058594 523.015625 495.785156 524.570312 496.511719 526.125 C 501.851562 537.519531 507.550781 548.625 513.882812 559.503906 C 515.109375 561.632812 516.308594 563.773438 517.503906 565.917969 C 532.90625 593.570312 550.855469 620.300781 571.328125 644.472656 C 571.667969 644.875 572.007812 645.277344 572.355469 645.6875 C 576.5625 650.652344 580.8125 655.570312 585.1875 660.378906 C 586.257812 661.558594 587.320312 662.742188 588.378906 663.933594 C 592.449219 668.515625 596.683594 672.902344 601.027344 677.226562 C 601.660156 677.863281 602.292969 678.496094 602.945312 679.152344 C 605.617188 681.820312 608.28125 684.449219 611.183594 686.867188 C 617.953125 692.542969 622.1875 700.929688 626.511719 708.496094 C 627.667969 710.496094 628.851562 712.476562 630.042969 714.453125 C 641.015625 732.777344 649.246094 752.015625 657.1875 771.78125 C 656.457031 772.027344 655.722656 772.269531 654.96875 772.523438 C 648.859375 762.105469 642.808594 751.65625 636.839844 741.15625 C 635.484375 738.777344 634.128906 736.40625 632.761719 734.035156 C 632.359375 733.335938 631.957031 732.632812 631.542969 731.914062 C 629.632812 728.65625 627.757812 725.714844 625.128906 722.976562 C 622.832031 720.519531 620.65625 718.023438 618.558594 715.390625 C 614.933594 710.902344 610.984375 706.734375 607.027344 702.535156 C 604.847656 700.21875 602.726562 697.859375 600.65625 695.445312 C 599.238281 693.816406 597.769531 692.234375 596.308594 690.640625 C 593.691406 687.75 591.28125 684.757812 588.90625 681.667969 C 584.921875 676.496094 580.539062 671.769531 576.054688 667.035156 C 574.363281 665.226562 572.746094 663.355469 571.128906 661.480469 C 569.53125 659.652344 567.882812 657.871094 566.238281 656.085938 C 562.597656 652.089844 559.175781 647.941406 555.785156 643.734375 C 554.707031 642.421875 553.625 641.113281 552.546875 639.800781 C 549.015625 635.480469 545.542969 631.121094 542.128906 626.710938 C 541.351562 625.710938 540.578125 624.710938 539.796875 623.714844 C 526.890625 607.152344 515.125 589.433594 504.714844 571.199219 C 504.320312 570.515625 503.929688 569.835938 503.527344 569.132812 C 492.734375 550.324219 482.832031 531.214844 474.367188 511.242188 C 474.136719 510.707031 473.910156 510.171875 473.675781 509.621094 C 465.78125 491.054688 458.371094 472.324219 451.296875 453.429688 C 450.242188 450.613281 449.179688 447.800781 448.113281 444.988281 C 437.550781 417.144531 427.964844 388.910156 418.714844 360.605469 C 418.066406 358.628906 417.417969 356.652344 416.769531 354.675781 C 394.320312 286.308594 376.347656 216.074219 362.425781 105.289062 C 362.378906 104.800781 362.332031 104.3125 362.28125 103.808594 C 362.1875 102.785156 362.097656 101.765625 362.011719 100.742188 C 361.902344 99.476562 361.789062 98.214844 361.664062 96.949219 C 360.867188 87.75 361.027344 78.527344 361.046875 69.300781 C 361.050781 67.441406 361.050781 65.578125 361.050781 63.71875 C 361.054688 59.347656 361.058594 54.980469 361.066406 50.609375 C 361.078125 45.136719 361.082031 39.667969 361.085938 34.195312 C 361.09375 24.453125 361.105469 14.710938 361.121094 4.96875 Z M 361.121094 4.96875 " fill-opacity="1" fill-rule="nonzero"/></g><g clip-path="url(#b283c760a4)"><path fill="#ffffff" d="M 475.847656 321.019531 C 478.460938 324.058594 480.332031 327.277344 482.230469 330.78125 C 482.894531 331.996094 483.5625 333.207031 484.226562 334.421875 C 484.558594 335.035156 484.894531 335.644531 485.238281 336.277344 C 486.105469 337.855469 486.984375 339.429688 487.867188 340.996094 C 505.878906 372.9375 522.558594 405.832031 538.253906 438.96875 C 539.636719 441.886719 541.042969 444.796875 542.460938 447.699219 C 548.425781 459.914062 554.003906 472.273438 559.476562 484.71875 C 561.132812 488.484375 562.804688 492.246094 564.484375 496.007812 C 573.902344 517.113281 583.03125 538.367188 590.898438 560.105469 C 592.964844 565.796875 595.164062 571.441406 597.355469 577.089844 C 620.339844 636.394531 640.152344 696.90625 656.355469 758.414062 C 656.59375 759.320312 656.59375 759.320312 656.839844 760.246094 C 659.410156 770.019531 659.410156 770.019531 659.410156 771.78125 C 658.675781 771.539062 657.941406 771.292969 657.1875 771.042969 C 656.332031 769.148438 656.332031 769.148438 655.503906 766.574219 C 655.351562 766.105469 655.199219 765.636719 655.039062 765.152344 C 654.527344 763.578125 654.027344 762.003906 653.527344 760.425781 C 653.167969 759.3125 652.808594 758.203125 652.445312 757.089844 C 651.675781 754.71875 650.910156 752.34375 650.148438 749.964844 C 648.355469 744.371094 646.53125 738.789062 644.710938 733.203125 C 644.105469 731.332031 643.496094 729.464844 642.886719 727.59375 C 637.777344 711.894531 632.378906 696.296875 626.839844 680.742188 C 626.65625 680.21875 626.46875 679.699219 626.277344 679.160156 C 623.820312 672.261719 621.28125 665.390625 618.699219 658.539062 C 618.464844 657.910156 618.226562 657.285156 617.984375 656.640625 C 612.328125 641.621094 606.621094 626.617188 600.8125 611.65625 C 600.339844 610.445312 600.339844 610.445312 599.863281 609.214844 C 598.371094 605.375 596.878906 601.542969 595.378906 597.707031 C 592.644531 590.699219 589.976562 583.679688 587.425781 576.601562 C 585.457031 571.140625 583.410156 565.742188 581.089844 560.417969 C 580.390625 558.792969 579.695312 557.164062 578.996094 555.535156 C 578.808594 555.09375 578.617188 554.652344 578.421875 554.199219 C 576.707031 550.207031 575.015625 546.203125 573.328125 542.195312 C 573.046875 541.523438 572.761719 540.851562 572.472656 540.160156 C 572.183594 539.472656 571.894531 538.785156 571.597656 538.082031 C 556.640625 502.554688 541.453125 467.136719 525.398438 432.09375 C 524.183594 429.445312 522.976562 426.800781 521.765625 424.152344 C 520.273438 420.886719 518.78125 417.617188 517.285156 414.351562 C 514.851562 409.03125 512.421875 403.707031 510.003906 398.378906 C 504.503906 386.242188 498.9375 374.144531 493.285156 362.082031 C 489.792969 354.621094 486.320312 347.152344 482.863281 339.675781 C 482.140625 338.113281 481.417969 336.550781 480.691406 334.992188 C 479.71875 332.898438 478.753906 330.800781 477.789062 328.699219 C 477.503906 328.085938 477.214844 327.472656 476.921875 326.839844 C 476.269531 325.414062 475.683594 323.960938 475.105469 322.5 C 475.351562 322.011719 475.59375 321.523438 475.847656 321.019531 Z M 475.847656 321.019531 " fill-opacity="1" fill-rule="nonzero"/></g></svg>