<?xml version="1.0" encoding="UTF-8"?>
<svg version="1.1" xmlns="http://www.w3.org/2000/svg" width="1536" height="1037">
<path d="M0 0 C4.7821639 0.76230832 7.44541071 2.64696484 11 5.8125 C11.56976563 6.3089502 12.13953125 6.80540039 12.7265625 7.31689453 C14.49482328 8.866557 16.24866122 10.43125819 18 12 C18.5053125 12.44746582 19.010625 12.89493164 19.53125 13.35595703 C27.24829186 20.20842339 34.56582719 27.46740139 41.875 34.75 C42.76703125 35.6373584 43.6590625 36.5247168 44.578125 37.43896484 C49.59342886 42.46650574 54.37853709 47.61058794 59 53 C60.45445517 54.60768373 61.91220895 56.21239715 63.375 57.8125 C68.10571502 63.06175883 72.57083694 68.49558996 77 74 C77.91374442 75.12135302 78.82782139 76.24243511 79.7421875 77.36328125 C85.33036547 84.24443599 90.73808063 91.24098826 96 98.375 C96.52037842 99.08011719 97.04075684 99.78523438 97.5769043 100.51171875 C107.72932088 114.37453041 117.47902409 128.51044035 127 142.8125 C127.52358093 143.59847565 128.04716187 144.38445129 128.58660889 145.19424438 C136.39840724 156.9363417 144.04275156 168.72604543 151 181 C151.82951172 182.46155518 151.82951172 182.46155518 152.67578125 183.95263672 C156.2852462 190.33112747 159.85771962 196.72957167 163.41162109 203.13916016 C164.79543439 205.63155552 166.18621824 208.11978192 167.58203125 210.60546875 C170.07865796 215.05724798 172.54681233 219.52414523 175 224 C175.52078125 224.94987793 176.0415625 225.89975586 176.578125 226.87841797 C192.26978158 255.60296707 206.97391979 284.87435873 220.49365234 314.68408203 C222.00089016 318.0019595 223.52510748 321.31165994 225.05078125 324.62109375 C241.42085799 360.36820564 255.65548284 397.03049476 269 434 C269.29583984 434.81940063 269.59167969 435.63880127 269.89648438 436.48303223 C274.03137885 447.9542701 278.06885362 459.45734595 282 471 C282.35357574 472.03755432 282.35357574 472.03755432 282.71429443 473.09606934 C296.34208635 513.19064871 307.16966224 554.00892525 316.39971924 595.32220459 C316.97330253 597.88090512 317.55335005 600.43803209 318.13623047 602.99462891 C326.03396892 637.67345684 332.14619033 672.63740224 336 708 C336.11714355 708.99999023 336.23428711 709.99998047 336.35498047 711.03027344 C338.73811087 731.6038063 338.19398294 752.32440273 338 773 C337.34 773 336.68 773 336 773 C335.91611526 772.44276749 335.83223053 771.88553497 335.74580383 771.31141663 C331.27424036 741.71252119 326.27724331 712.28250967 320.375 682.9375 C320.10720474 681.60108917 319.839433 680.26467363 319.57168579 678.92825317 C315.92770763 660.77583385 311.98088482 642.7035097 307.83578491 624.66033936 C307.03977416 621.17419187 306.26004429 617.68483977 305.4855957 614.19384766 C302.06730504 598.89201073 297.99788449 583.84887204 293.5625 568.8125 C293.04552048 567.04925888 293.04552048 567.04925888 292.51809692 565.25039673 C269.34644275 486.26736093 240.5007608 409.78808876 205.95965576 335.07684326 C204.99103007 332.98058768 204.02491895 330.88318627 203.05908203 328.78564453 C189.70763887 299.82534629 175.05953709 271.60162652 160.06298828 243.46484375 C159.35035844 242.12642319 158.63795066 240.78788436 157.92578125 239.44921875 C157.58344452 238.80577011 157.24110779 238.16232147 156.88839722 237.49937439 C154.82653094 233.60757129 152.83868308 229.68678209 150.89453125 225.734375 C147.9778076 219.85196117 144.7232124 214.20788465 141.375 208.5625 C140.13193789 206.45103549 138.88976593 204.3390467 137.6484375 202.2265625 C137.03323242 201.18016602 136.41802734 200.13376953 135.78417969 199.05566406 C133.64124905 195.38558746 131.54059632 191.6929043 129.44726562 187.99438477 C120.6945775 172.53100711 111.65968932 157.20220062 101.68261719 142.49194336 C98.38624466 137.6246223 95.24572768 132.66893147 92.125 127.6875 C72.39844177 96.275238 49.8575356 67.12102612 26.92529297 38.00561523 C22.23401534 32.04184391 17.61323782 26.02422813 13 20 C11.35 20.33 9.7 20.66 8 21 C7.6201451 35.7741503 8.67435883 49.87808463 10.78125 64.4921875 C11.07701588 66.61387809 11.37170707 68.73571873 11.66540527 70.85769653 C12.28207593 75.29119562 12.90819417 79.72321445 13.54199219 84.15429688 C14.33161142 89.67652751 15.10292693 95.20110248 15.86775112 100.72681522 C19.00976368 123.39742119 22.38712511 146.01774796 26.22265625 168.58203125 C26.38448395 169.53789501 26.54631165 170.49375877 26.71304321 171.4785881 C29.41786025 187.38234975 32.56681765 203.17177135 36.21484375 218.88671875 C36.64848945 220.77127222 37.08190366 222.65587897 37.51513672 224.54052734 C37.86762482 226.07117828 37.86762482 226.07117828 38.22723389 227.63275146 C39.08536393 231.37196451 39.93635344 235.1127761 40.78564453 238.85400391 C65.4782719 348.22326115 65.4782719 348.22326115 107 502 C107.48566437 503.6175116 107.48566437 503.6175116 107.98114014 505.2677002 C120.51848757 546.92545692 134.54500481 588.02369822 150.46063232 628.51356506 C152.26745673 633.112107 154.03973798 637.72154136 155.78515625 642.34375 C162.96751253 661.24178736 171.35390151 679.52736002 179.96759033 697.8069458 C180.95522295 699.90488417 181.93891459 702.00462141 182.92138672 704.10498047 C190.13315261 719.50218781 197.83246206 734.50472496 206.38671875 749.20410156 C208.04477852 752.07760345 209.66758986 754.96854027 211.28125 757.8671875 C232.0875145 795.22501488 256.34200791 831.34003062 284 864 C284.45826172 864.54172852 284.91652344 865.08345703 285.38867188 865.64160156 C291.06971901 872.34582819 296.8107947 878.98915436 302.72509766 885.48950195 C304.16909633 887.08304545 305.60623181 888.68285671 307.03393555 890.29101562 C312.53710717 896.48104543 318.25574084 902.40754111 324.125 908.25 C324.97964844 909.10851562 325.83429688 909.96703125 326.71484375 910.8515625 C330.3272734 914.4584431 333.92485918 918.0075588 337.84765625 921.27734375 C346.99128293 928.94507272 352.71347833 940.27161031 358.55322266 950.49804688 C360.11496933 953.19881973 361.71605661 955.87349493 363.32421875 958.546875 C378.1486729 983.30167423 389.26917639 1009.29499093 400 1036 C399.01 1036.33 398.02 1036.66 397 1037 C388.74637818 1022.92351051 380.57048502 1008.80670513 372.5078125 994.62011719 C370.67971702 991.40882497 368.84373732 988.20233468 367 985 C366.45577393 984.05406982 365.91154785 983.10813965 365.35083008 982.13354492 C362.77207931 977.73273148 360.23932035 973.76147675 356.6875 970.0625 C353.58179232 966.74011504 350.64464145 963.37110152 347.8125 959.8125 C342.90996514 953.74679782 337.57741963 948.11835023 332.23046875 942.4453125 C329.28322994 939.31539707 326.42187921 936.12504386 323.62109375 932.86328125 C321.70537689 930.66136091 319.72516424 928.52372876 317.75 926.375 C314.21400856 922.46868514 310.95693837 918.42363419 307.75 914.25 C302.36700531 907.26282695 296.44566511 900.87879177 290.38623047 894.47900391 C288.09809967 892.03774001 285.91422384 889.5107968 283.73046875 886.9765625 C281.56962793 884.50842377 279.34562298 882.10195991 277.125 879.6875 C272.2026176 874.28851779 267.58351273 868.68680075 263 863 C261.5424923 861.22848705 260.08415078 859.45765983 258.625 857.6875 C253.85639709 851.8500723 249.16233384 845.95907972 244.54833984 839.99902344 C243.50219921 838.64837703 242.45296143 837.3001247 241.40087891 835.95410156 C223.96427474 813.575846 208.06577659 789.63565889 194 765 C193.47067871 764.07977051 192.94135742 763.15954102 192.39599609 762.21142578 C177.8175164 736.80082103 164.43908555 710.97981905 153 684 C152.69211548 683.27617126 152.38423096 682.55234253 152.0670166 681.80657959 C141.40102248 656.72110194 131.38772141 631.41884645 121.83300781 605.890625 C120.40837444 602.0846402 118.97230908 598.28315912 117.53016663 594.48377991 C103.26205618 556.86549131 90.30836292 518.72189894 77.81195068 480.48150635 C76.93790683 477.81022912 76.06008695 475.14020803 75.18212891 472.47021484 C44.85536123 380.10117175 20.56973249 285.21369686 1.76171875 135.53515625 C1.69847412 134.87550369 1.63522949 134.21585114 1.57006836 133.53620911 C1.44197329 132.15574541 1.32007896 130.77469782 1.20307922 129.39324951 C1.05809166 127.684599 0.90024211 125.9770199 0.73381042 124.27032471 C-0.34467527 111.83919762 -0.12501898 99.38103429 -0.09765625 86.9140625 C-0.09578807 84.40058419 -0.09436606 81.88710551 -0.09336853 79.37362671 C-0.08996108 73.47024207 -0.08210727 67.56687691 -0.07201904 61.66350019 C-0.05966427 54.27046185 -0.05435674 46.87742105 -0.04882812 39.484375 C-0.03814647 26.32290711 -0.02130438 13.16145476 0 0 Z " fill="#439181" transform="translate(0,0)"/>
<path d="M0 0 C8.46684622 7.32585946 16.4322849 14.88305706 23 24 C23.52062012 24.72155273 24.04124023 25.44310547 24.57763672 26.18652344 C37.75949908 44.6969073 47.64553858 63.84803793 53 86 C53.26466064 87.04317383 53.26466064 87.04317383 53.53466797 88.10742188 C56.3956388 99.91424302 56.30736335 111.98540575 56.375 124.0625 C56.3830365 124.86266541 56.391073 125.66283081 56.39935303 126.48724365 C56.51182674 141.27507581 54.89755657 155.73563838 50.8125 170 C50.50276245 171.09199707 50.50276245 171.09199707 50.18676758 172.20605469 C42.87283409 196.74889084 28.60550461 218.60853536 11 237 C9.88625 238.20849609 9.88625 238.20849609 8.75 239.44140625 C-18.41196433 267.98827336 -58.42058963 283.09650228 -97.33203125 284.203125 C-136.4799468 284.76004986 -177.53113634 274.09083827 -207 247 C-207.9796875 246.13761719 -208.959375 245.27523438 -209.96875 244.38671875 C-242.47471978 215.57425843 -260.89873371 177.2564329 -264 134 C-266.44194428 89.41638363 -252.01642222 48.98875011 -222.49169922 15.65722656 C-167.09145917 -45.89053603 -68.49070719 -56.2739594 0 0 Z M-136 -20 C-136.70479492 -19.82839355 -137.40958984 -19.65678711 -138.13574219 -19.47998047 C-168.70395181 -11.77943419 -197.44516532 6.04633052 -217 31 C-217.39896484 31.50837402 -217.79792969 32.01674805 -218.20898438 32.54052734 C-243.06605375 64.51905637 -253.96717619 102.66610006 -249.23120117 143.09277344 C-244.83111011 175.14497895 -230.53864023 202.97351041 -208 226 C-206.67548828 227.39992188 -206.67548828 227.39992188 -205.32421875 228.828125 C-179.97558458 255.09385882 -145.91749762 269.15951582 -109.4765625 270.203125 C-66.40569415 270.78165065 -31.45247401 257.20586872 0 228 C0.88945313 227.19175781 0.88945313 227.19175781 1.796875 226.3671875 C7.92375153 220.5612426 12.96571616 213.74699854 18 207 C18.63035156 206.16082031 19.26070312 205.32164062 19.91015625 204.45703125 C32.294802 186.50954226 39.59199763 163.56002122 42 142 C42.11085938 141.00742187 42.22171875 140.01484375 42.3359375 138.9921875 C45.81898394 102.93795004 36.8931029 64.45011768 14.23828125 35.69140625 C10.61455876 31.33408549 6.89924605 27.11307567 3 23 C2.11828125 22.05382812 1.2365625 21.10765625 0.328125 20.1328125 C-23.53373257 -4.9646238 -57.17108401 -21.70252201 -92.05444336 -23.12451172 C-106.91787704 -23.46440417 -121.50268898 -23.56690922 -136 -20 Z " fill="#439181" transform="translate(897,482)"/>
<path d="M0 0 C7.92 0 15.84 0 24 0 C24 103.95 24 207.9 24 315 C19.38 315 14.76 315 10 315 C10 287.61 10 260.22 10 232 C-14.41217747 231.624195 -14.41217747 231.624195 -38.82421875 231.42773438 C-48.7868002 231.38734595 -58.74648678 231.32759023 -68.70751953 231.1394043 C-75.96400437 231.00240435 -83.21753295 230.93310407 -90.47535729 230.94328564 C-94.31600116 230.94635565 -98.14982076 230.91678083 -101.98900604 230.805933 C-117.48260483 229.74828658 -117.48260483 229.74828658 -131.40675354 234.81161118 C-135.34701552 239.19319458 -137.72371594 244.05612287 -139.90035248 249.48665428 C-141.78180926 253.7868971 -144.41576482 257.59685747 -147 261.5 C-147.99678379 263.06952733 -148.99066779 264.64090347 -149.98046875 266.21484375 C-150.47466309 266.99714355 -150.96885742 267.77944336 -151.47802734 268.58544922 C-153.04819379 271.07645758 -154.61253508 273.57105002 -156.17578125 276.06640625 C-165.71960454 291.27867322 -165.71960454 291.27867322 -170.328125 297.4453125 C-171.736791 299.59780682 -172.78628852 301.60686124 -173.859375 303.9296875 C-177.94202372 312.37678393 -177.94202372 312.37678393 -181 315 C-186.20196633 316.76370692 -191.69361953 315.878971 -197 315 C-196.44130713 311.34997944 -195.53218254 308.8656574 -193.48046875 305.8046875 C-192.9589624 305.01634521 -192.43745605 304.22800293 -191.90014648 303.41577148 C-191.33497314 302.57731689 -190.7697998 301.7388623 -190.1875 300.875 C-188.99369079 299.07234315 -187.80100806 297.26893986 -186.609375 295.46484375 C-186.00416016 294.55202637 -185.39894531 293.63920898 -184.77539062 292.69873047 C-182.10884103 288.64536973 -179.51867538 284.5455739 -176.9375 280.4375 C-176.44725342 279.65874512 -175.95700684 278.87999023 -175.4519043 278.07763672 C-174.46213501 276.50499066 -173.47279435 274.93207475 -172.48388672 273.35888672 C-169.99496138 269.40232262 -167.49702432 265.45145569 -165 261.5 C-164.00646136 259.92711432 -163.01297184 258.35419761 -162.01953125 256.78125 C-161.52533691 255.99878906 -161.03114258 255.21632813 -160.52197266 254.41015625 C-158.95572871 251.92989314 -157.38992956 249.44934968 -155.82421875 246.96875 C-155.30279297 246.1427832 -154.78136719 245.31681641 -154.24414062 244.46582031 C-153.21794814 242.84026447 -152.19190303 241.21461558 -151.16601562 239.58886719 C-147.96533404 234.51934555 -144.74718276 229.46177324 -141.5 224.421875 C-140.37257902 222.60155987 -139.29930752 220.74753179 -138.25390625 218.87890625 C-135.38909977 213.82919288 -132.1340359 209.03083384 -128.9375 204.1875 C-124.37066449 197.22929735 -119.86251273 190.25144417 -115.5625 183.125 C-107.039265 169.01567824 -98.16219735 155.0989216 -88.9375 141.4375 C-84.04416036 134.18633755 -79.43703795 126.760274 -74.81933594 119.33154297 C-70.49350406 112.37472578 -66.10791459 105.4595105 -61.6875 98.5625 C-57.271368 91.65852637 -53.00263452 84.69705423 -48.89282227 77.60717773 C-42.8574378 67.24600791 -36.39192344 57.14329404 -30 47 C-29.19876709 45.72672852 -29.19876709 45.72672852 -28.38134766 44.42773438 C-22.4467079 34.99797548 -16.47638516 25.59084344 -10.5 16.1875 C-9.91210693 15.26179199 -9.32421387 14.33608398 -8.71850586 13.38232422 C-7.88331421 12.06965576 -7.88331421 12.06965576 -7.03125 10.73046875 C-6.29745117 9.57647583 -6.29745117 9.57647583 -5.54882812 8.39916992 C-3.72890113 5.5800617 -1.86130686 2.79196028 0 0 Z M9 12 C7.43858857 14.45992989 5.92975026 16.93577854 4.4375 19.4375 C-0.23585443 27.18193835 -5.04801147 34.82781535 -9.9375 42.4375 C-16.18560733 52.16616072 -22.39026742 61.92010026 -28.55126953 71.70410156 C-30.0597086 74.09462414 -31.57409424 76.48129428 -33.08984375 78.8671875 C-37.61319415 85.99308164 -42.11816035 93.12315533 -46.4375 100.375 C-54.73486334 114.30508771 -63.31991083 128.04682241 -72.19213867 141.61767578 C-77.3883101 149.57047213 -82.46050257 157.59847507 -87.51611328 165.64111328 C-90.00503862 169.59767738 -92.50297568 173.54854431 -95 177.5 C-95.99353864 179.07288568 -96.98702816 180.64580239 -97.98046875 182.21875 C-98.47466309 183.00121094 -98.96885742 183.78367187 -99.47802734 184.58984375 C-101.04427129 187.07010686 -102.61007044 189.55065032 -104.17578125 192.03125 C-104.6975293 192.85761963 -105.21927734 193.68398926 -105.75683594 194.53540039 C-106.78016729 196.15663861 -107.80296874 197.77821145 -108.82519531 199.40014648 C-110.96960239 202.79999991 -113.11897296 206.19545363 -115.30859375 209.56640625 C-115.94925781 210.55511719 -116.58992188 211.54382813 -117.25 212.5625 C-118.06210938 213.80193359 -118.06210938 213.80193359 -118.890625 215.06640625 C-120.16588262 216.91758689 -120.16588262 216.91758689 -120 219 C-77.1 219 -34.2 219 10 219 C10 150.69 10 82.38 10 12 C9.67 12 9.34 12 9 12 Z " fill="#439181" transform="translate(1278,448)"/>
<path d="M0 0 C1.48409363 -0.00856522 1.48409363 -0.00856522 2.99816895 -0.01730347 C4.64056046 -0.01898026 4.64056046 -0.01898026 6.31613159 -0.02069092 C7.46261169 -0.02565582 8.6090918 -0.03062073 9.79031372 -0.03573608 C13.60865876 -0.05041676 17.42696211 -0.05717324 21.24533081 -0.06268311 C23.2278894 -0.06698087 25.21044799 -0.07127916 27.1930064 -0.07565761 C32.72958391 -0.08748879 38.26615134 -0.09501144 43.80274022 -0.09845281 C50.93408821 -0.10291032 58.06524231 -0.1203407 65.19653141 -0.1494534 C70.72116034 -0.17121262 76.24573537 -0.18116494 81.7704066 -0.18249393 C85.06239747 -0.18353375 88.35416733 -0.19074703 91.64612198 -0.20731354 C119.74883013 -0.33851743 143.46767273 3.46911204 164.38204956 23.97247314 C181.96109464 41.90255064 188.10147111 62.3846682 187.89352417 86.84503174 C187.34305322 108.17685884 179.81688479 127.14298895 164.42501831 142.14044189 C143.2231332 161.94006883 120.01730002 165.79145719 91.92111206 165.53106689 C89.77402158 165.52516983 87.6269253 165.52109896 85.47982788 165.51885986 C77.60730242 165.49807283 69.73490088 165.44222861 61.86251831 165.39044189 C35.41095581 165.26669189 35.41095581 165.26669189 8.42501831 165.14044189 C8.42501831 214.64044189 8.42501831 264.14044189 8.42501831 315.14044189 C3.80501831 315.14044189 -0.81498169 315.14044189 -5.57498169 315.14044189 C-5.59777059 275.15572077 -5.61547911 235.17100067 -5.62604702 195.18627435 C-5.6272978 190.47088292 -5.62859211 185.75549151 -5.62991333 181.0401001 C-5.63017564 180.10130937 -5.63043795 179.16251864 -5.63070821 178.19527971 C-5.63506525 162.97375 -5.64295297 147.75222405 -5.65213449 132.53069658 C-5.6614701 116.92409072 -5.6670371 101.31748684 -5.66907018 85.71087831 C-5.6704456 76.07271089 -5.67479722 66.43455409 -5.68289816 56.79638993 C-5.68816448 50.19646837 -5.68978625 43.59655234 -5.68848307 36.99662883 C-5.68783951 33.18292083 -5.68885921 29.36923146 -5.69418716 25.55552673 C-5.69990792 21.430789 -5.69798292 17.30609146 -5.69523621 13.18135071 C-5.69814905 11.96250578 -5.70106189 10.74366086 -5.704063 9.48788124 C-5.70207195 8.39210398 -5.7000809 7.29632672 -5.69802952 6.16734409 C-5.69840924 5.21386634 -5.69878896 4.26038859 -5.69918019 3.27801758 C-5.4694028 -0.67667242 -3.47016664 0.01194028 0 0 Z M8.42501831 14.14044189 C8.42501831 59.35044189 8.42501831 104.56044189 8.42501831 151.14044189 C34.69095581 151.26419189 34.69095581 151.26419189 61.48751831 151.39044189 C69.74021729 151.44506592 69.74021729 151.44506592 78.15963745 151.50079346 C83.14900473 151.51418215 83.14900473 151.51418215 88.13838196 151.5222168 C90.33775584 151.52830561 92.53711749 151.54226115 94.73640442 151.56274414 C118.47436275 151.77251855 137.71593429 148.48211753 155.42501831 131.14044189 C169.432832 115.21758148 175.63071716 97.20728907 174.42501831 76.14044189 C171.57262016 55.45494033 161.35246181 38.71572134 144.69845581 26.07012939 C131.85275914 17.51867138 118.87264068 13.79824939 103.55929565 13.91339111 C102.50739862 13.91315004 101.45550159 13.91290897 100.3717289 13.9126606 C97.00138204 13.91414115 93.63126256 13.9293158 90.26095581 13.94512939 C88.16631171 13.94807373 86.07166613 13.95011176 83.97702026 13.95123291 C76.25133036 13.96167494 68.52567205 13.98959747 60.80001831 14.01544189 C43.51626831 14.05669189 26.23251831 14.09794189 8.42501831 14.14044189 Z " fill="#439181" transform="translate(983.5749816894531,447.85955810546875)"/>
<path d="M0 0 C2.90140458 2.61270761 5.66835844 5.28873423 8.35546875 8.12109375 C6.97358422 11.33153257 5.43124972 13.1704574 2.73046875 15.37109375 C2.09882812 15.891875 1.4671875 16.41265625 0.81640625 16.94921875 C0.33429688 17.3359375 -0.1478125 17.72265625 -0.64453125 18.12109375 C-3.84660787 16.70820407 -5.96216894 14.99440606 -8.45703125 12.55859375 C-30.76425834 -7.58750625 -59.42594436 -11.13306547 -88.33496094 -10.05908203 C-107.73952791 -9.00268114 -129.12420149 -1.76097716 -142.6171875 12.68359375 C-154.46433827 26.92756693 -160.15901795 44.63474023 -158.64453125 63.12109375 C-156.30090306 78.4236072 -147.5041585 92.5302638 -135.16015625 101.88671875 C-116.18046488 115.33541743 -94.58466021 122.3544604 -72.45361328 128.6652832 C-44.70674241 136.60545884 -18.66225097 147.86174536 2.35546875 168.12109375 C3.29519531 169.00474609 3.29519531 169.00474609 4.25390625 169.90625 C16.36571094 182.37428424 20.90758493 199.98908918 20.7734375 216.89501953 C20.13060708 237.0758771 11.79011513 254.2472178 -2.64453125 268.12109375 C-3.38574219 268.8584375 -4.12695312 269.59578125 -4.890625 270.35546875 C-24.6150623 289.03034883 -52.72060895 296.74288558 -79.37524414 296.47216797 C-107.30456297 295.65366349 -131.49696663 287.1129049 -153.64453125 270.12109375 C-154.41667969 269.54746094 -155.18882812 268.97382812 -155.984375 268.3828125 C-164.27310096 261.76824505 -172.40593052 250.22776155 -175.64453125 240.12109375 C-175.46484375 237.953125 -175.46484375 237.953125 -174.64453125 236.12109375 C-170.46249038 233.86922559 -167.34317754 232.95907146 -162.64453125 233.12109375 C-162.24363281 233.93191406 -161.84273438 234.74273438 -161.4296875 235.578125 C-149.97332826 257.89334628 -133.01149174 269.53471615 -109.64453125 277.12109375 C-81.5128072 284.94721247 -52.24871733 282.26453366 -26.49609375 268.4296875 C-10.15401999 258.56493429 1.20553923 244.37275324 5.9609375 225.75 C8.3996784 209.49977599 4.84738257 195.57405622 -4.64453125 182.12109375 C-23.77856697 159.18046289 -53.8087854 150.09381084 -81.26953125 141.62109375 C-93.71313378 137.77712811 -105.89546588 133.80828371 -117.64453125 128.12109375 C-118.43698242 127.74130371 -119.22943359 127.36151367 -120.04589844 126.97021484 C-142.12671884 116.24931593 -162.14303804 101.59696898 -170.90234375 77.64453125 C-176.48829721 58.6522895 -174.13825991 35.7930536 -164.69873047 18.37597656 C-152.77869554 -2.63003839 -134.12366436 -14.64151914 -111.14453125 -21.12890625 C-73.53168922 -30.35905153 -30.19838075 -25.73776321 0 0 Z " fill="#439181" transform="translate(600.64453125,469.87890625)"/>
<path d="M0 0 C0.79473156 0.00291284 1.58946312 0.00582568 2.40827745 0.00882679 C3.24626011 0.00797237 4.08424277 0.00711794 4.94761884 0.00623763 C7.77753875 0.00458025 10.60740041 0.01010838 13.43731493 0.01555592 C15.45714117 0.01583776 17.47696751 0.01568011 19.49679369 0.01511341 C24.99863402 0.01482532 30.50045275 0.0207239 36.00228804 0.02768737 C41.74519121 0.03391901 47.48809482 0.03452456 53.23100084 0.03571278 C64.11429909 0.03882666 74.99758735 0.0470408 85.88088119 0.05706227 C98.26760812 0.06822165 110.65433552 0.07373341 123.04106623 0.0787577 C148.52919309 0.08922337 174.01731107 0.1068239 199.50543016 0.12908131 C199.50543016 4.74908131 199.50543016 9.36908131 199.50543016 14.12908131 C167.82543016 14.12908131 136.14543016 14.12908131 103.50543016 14.12908131 C103.50543016 113.45908131 103.50543016 212.78908131 103.50543016 315.12908131 C98.88543016 315.12908131 94.26543016 315.12908131 89.50543016 315.12908131 C89.50543016 215.79908131 89.50543016 116.46908131 89.50543016 14.12908131 C57.82543016 14.12908131 26.14543016 14.12908131 -6.49456984 14.12908131 C-6.49456984 0.01805786 -6.49456984 0.01805786 0 0 Z " fill="#439181" transform="translate(1335.494569838047,447.8709186911583)"/>
<path d="M0 0 C3.5332821 4.10602875 6.05985799 8.45279431 8.625 13.1875 C9.52320305 14.82695139 10.42164649 16.46627109 11.3203125 18.10546875 C11.77180664 18.93224121 12.22330078 19.75901367 12.68847656 20.61083984 C13.8597605 22.7445302 15.04551856 24.86875745 16.2421875 26.98828125 C40.57217129 70.13957325 63.11166938 114.58592181 84.3125 159.3515625 C86.18219057 163.29699682 88.08130048 167.22660589 90 171.1484375 C98.05792766 187.65151302 105.5957708 204.35100666 112.98721313 221.16107178 C115.22653087 226.25274729 117.48441145 231.33577514 119.75390625 236.4140625 C132.47801406 264.92744698 144.80875925 293.64452358 155.4375 323.01171875 C158.23172521 330.70594579 161.20318028 338.32908202 164.16479492 345.95993042 C195.21671253 426.08165465 221.98222071 507.84023858 243.875 590.9375 C244.19845398 592.16386673 244.19845398 592.16386673 244.52844238 593.41500854 C248 606.6180141 248 606.6180141 248 609 C247.01 608.67 246.02 608.34 245 608 C243.84249878 605.43811035 243.84249878 605.43811035 242.72607422 601.96289062 C242.51850904 601.32845378 242.31094385 600.69401693 242.09708881 600.04035473 C241.40499632 597.91580013 240.73007724 595.78616757 240.0546875 593.65625 C239.56841054 592.15398537 239.08094476 590.6521051 238.59236145 589.15058899 C237.55090626 585.943473 236.51643903 582.73422178 235.48739624 579.52310181 C233.06469525 571.96606394 230.60375195 564.42145569 228.14521599 556.87601662 C227.32271981 554.35086685 226.5015006 551.82530401 225.68031311 549.29972839 C218.77599802 528.08838297 211.4797828 507.01496662 204 486 C203.74917664 485.29480225 203.49835327 484.58960449 203.2399292 483.86303711 C199.91897701 474.54060726 196.4887652 465.26067481 193 456 C192.68156128 455.15425415 192.36312256 454.3085083 192.03503418 453.43713379 C184.39000406 433.1440165 176.68219666 412.87487628 168.83203125 392.66015625 C168.19779739 391.02695686 168.19779739 391.02695686 167.55075073 389.36076355 C165.53664079 384.17768546 163.51844754 378.99624258 161.49414062 373.81713867 C157.80080508 364.34969394 154.19448883 354.86188505 150.75 345.30078125 C148.08980158 337.92119556 145.32170203 330.63139619 142.1875 323.4375 C141.24410304 321.23857656 140.3014575 319.03933066 139.359375 316.83984375 C139.10337021 316.24420624 138.84736542 315.64856873 138.58360291 315.03488159 C136.2659966 309.63884721 133.98198646 304.22890124 131.703125 298.81640625 C131.32077698 297.90835739 130.93842896 297.00030853 130.54449463 296.06474304 C130.15437195 295.13821426 129.76424927 294.21168549 129.36230469 293.25708008 C109.15376435 245.26307711 88.63788524 197.40693272 66.94470215 150.06262207 C65.30747905 146.48797953 63.67339943 142.91190029 62.0390625 139.3359375 C60.02168286 134.92205546 58.00400242 130.50831306 55.984375 126.09545898 C52.69457752 118.9059078 49.41211728 111.71316838 46.1484375 104.51171875 C38.71829946 88.11868868 31.19663311 71.77319157 23.56242371 55.47419739 C18.8424248 45.39598806 14.14786821 35.30603756 9.48095703 25.203125 C8.50517674 23.09263416 7.52704291 20.98322964 6.54638672 18.875 C5.23143061 16.04519603 3.92664729 13.21094488 2.625 10.375 C2.23723389 9.54532715 1.84946777 8.7156543 1.44995117 7.86083984 C0.57245807 5.93378806 -0.22323346 3.96981128 -1 2 C-0.67 1.34 -0.34 0.68 0 0 Z " fill="#439181" transform="translate(155,427)"/>
<path d="M0 0 C5.8471875 -0.12375 5.8471875 -0.12375 11.8125 -0.25 C13.01753174 -0.28641602 14.22256348 -0.32283203 15.46411133 -0.36035156 C23.42449589 -0.44087099 31.62898641 0.34891806 37.97143555 5.64672852 C42.93521705 10.85310978 45.11355506 16.88651903 45.375 24 C45.14175431 30.90195206 43.08786966 37.17304673 38 42 C25.41747812 49.64480245 15.7779405 48 0 48 C0 32.16 0 16.32 0 0 Z M7 6 C7 17.55 7 29.1 7 41 C11.269375 41.0928125 11.269375 41.0928125 15.625 41.1875 C16.51010254 41.21481201 17.39520508 41.24212402 18.30712891 41.27026367 C24.20661204 41.33200708 28.37746883 40.41910632 32.86328125 36.28125 C33.34152344 35.6934375 33.81976562 35.105625 34.3125 34.5 C34.80363281 33.9121875 35.29476563 33.324375 35.80078125 32.71875 C38.50302888 28.8458218 38.55950072 24.54087539 38 20 C36.28321382 14.05139055 33.2939593 10.96038671 28 7.91015625 C20.94346416 4.69888115 15.4631233 6 7 6 Z " fill="#439181" transform="translate(1172,813)"/>
<path d="M0 0 C3.96 -0.061875 7.92 -0.12375 12 -0.1875 C13.23234375 -0.21481201 14.4646875 -0.24212402 15.734375 -0.27026367 C22.25770716 -0.31937879 27.07417761 0.24059493 33 3 C33.886875 3.391875 34.77375 3.78375 35.6875 4.1875 C39.8389873 7.44136843 42.34688051 12.04064153 44 17 C44.61294618 24.90801051 45.14496833 32.53118018 40 39 C34.53539841 44.77538461 29.87102938 46.68816177 22 48 C14.74 48 7.48 48 0 48 C0 32.16 0 16.32 0 0 Z M7 6 C7 17.55 7 29.1 7 41 C11.269375 41.0928125 11.269375 41.0928125 15.625 41.1875 C16.51010254 41.21481201 17.39520508 41.24212402 18.30712891 41.27026367 C24.04023317 41.33026578 28.24841486 40.50975937 32.64453125 36.5 C37.28593074 30.53913911 37.88819775 25.39828354 37 18 C35.26629063 13.41912137 33.07045867 10.67722895 28.9375 8.0625 C20.90974498 5.15884393 17.01635771 6 7 6 Z " fill="#439181" transform="translate(737,813)"/>
<path d="M0 0 C4.33239011 3.37861766 7.35930545 7.42947885 9.09375 12.6328125 C10.36796503 28.9973741 10.36796503 28.9973741 5.6484375 35.0234375 C-0.69264246 41.58757052 -5.40300306 44.65113913 -14.78125 44.9453125 C-22.69590345 44.77899716 -28.52339454 42.86640524 -34.36328125 37.4140625 C-39.48753409 31.49846935 -40.52995076 25.15550619 -40.21875 17.4921875 C-39.44670497 10.42797549 -37.05290862 5.8941482 -31.765625 1.109375 C-22.94946558 -5.89169278 -9.54811011 -5.5697309 0 0 Z M-29.84375 9.6953125 C-33.40319012 14.76481812 -33.6830281 19.60608586 -32.90625 25.6328125 C-30.93306575 30.82679973 -27.79789811 34.51678614 -22.7890625 36.9453125 C-17.14833951 39.00499558 -12.36467579 39.17763582 -6.796875 36.77734375 C-2.37341463 34.09950514 0.29159159 30.27200578 2.53125 25.6953125 C3.79534902 18.8129956 2.33764634 13.98569328 -1.51171875 8.328125 C-4.27254418 4.97182742 -7.65514146 3.25797552 -11.90625 2.6328125 C-19.24553989 1.92711155 -25.01376058 4.11368208 -29.84375 9.6953125 Z " fill="#439181" transform="translate(512.90625,816.3671875)"/>
<path d="M0 0 C5 0 5 0 7 1.80859375 C7.66 2.67613281 8.32 3.54367187 9 4.4375 C9.76699219 5.42878906 10.53398438 6.42007813 11.32421875 7.44140625 C11.74493652 8.00102051 12.1656543 8.56063477 12.59912109 9.13720703 C14.16242469 11.21598125 15.74606436 13.2783124 17.33203125 15.33984375 C20.066621 18.89856168 22.78624784 22.46824166 25.49536133 26.04638672 C27.29920799 28.38848975 29.15325632 30.69157041 31 33 C31.33 22.11 31.66 11.22 32 0 C34.31 0 36.62 0 39 0 C39 15.84 39 31.68 39 48 C33 48 33 48 30.578125 45.83203125 C29.80984375 44.83558594 29.0415625 43.83914063 28.25 42.8125 C27.82879883 42.27657227 27.40759766 41.74064453 26.97363281 41.18847656 C25.63128963 39.4719888 24.315805 37.73688189 23 36 C22.11626933 34.86197 21.23086713 33.72523592 20.34375 32.58984375 C15.82302896 26.78143772 11.4106354 20.89212759 7 15 C6.96241577 16.44620728 6.96241577 16.44620728 6.92407227 17.92163086 C6.83014694 21.48687842 6.72989061 25.05192433 6.62768555 28.61694336 C6.58428015 30.16214289 6.54260929 31.70739214 6.50268555 33.25268555 C6.44511801 35.46939096 6.38138576 37.6858448 6.31640625 39.90234375 C6.29969376 40.5971434 6.28298126 41.29194305 6.26576233 42.00779724 C6.11387171 46.88612829 6.11387171 46.88612829 5 48 C3.35 48 1.7 48 0 48 C0 32.16 0 16.32 0 0 Z " fill="#439181" transform="translate(1373,813)"/>
<path d="M0 0 C10.89 0 21.78 0 33 0 C33 1.98 33 3.96 33 6 C24.42 6 15.84 6 7 6 C7 10.62 7 15.24 7 20 C14.59 20 22.18 20 30 20 C30 22.31 30 24.62 30 27 C22.41 27 14.82 27 7 27 C7 31.62 7 36.24 7 41 C15.91 41 24.82 41 34 41 C34 43.31 34 45.62 34 48 C22.78 48 11.56 48 0 48 C0 32.16 0 16.32 0 0 Z " fill="#439181" transform="translate(1112,813)"/>
<path d="M0 0 C10.89 0 21.78 0 33 0 C33 1.98 33 3.96 33 6 C24.42 6 15.84 6 7 6 C7 10.62 7 15.24 7 20 C14.59 20 22.18 20 30 20 C30 22.31 30 24.62 30 27 C22.41 27 14.82 27 7 27 C7 31.62 7 36.24 7 41 C15.91 41 24.82 41 34 41 C34 43.31 34 45.62 34 48 C22.78 48 11.56 48 0 48 C0 32.16 0 16.32 0 0 Z " fill="#439181" transform="translate(790,813)"/>
<path d="M0 0 C10.89 0 21.78 0 33 0 C33 1.98 33 3.96 33 6 C24.42 6 15.84 6 7 6 C7 10.62 7 15.24 7 20 C14.59 20 22.18 20 30 20 C30 22.31 30 24.62 30 27 C22.41 27 14.82 27 7 27 C7 31.62 7 36.24 7 41 C15.91 41 24.82 41 34 41 C34 43.31 34 45.62 34 48 C22.78 48 11.56 48 0 48 C0 32.16 0 16.32 0 0 Z " fill="#439181" transform="translate(677,813)"/>
<path d="M0 0 C10.89 0 21.78 0 33 0 C33 1.98 33 3.96 33 6 C24.42 6 15.84 6 7 6 C7 10.62 7 15.24 7 20 C14.59 20 22.18 20 30 20 C30 22.31 30 24.62 30 27 C22.41 27 14.82 27 7 27 C7 31.62 7 36.24 7 41 C15.91 41 24.82 41 34 41 C34 42.98 34 44.96 34 47 C32.32326351 48.67673649 30.27144924 48.12787817 28.03344727 48.13894653 C26.99595337 48.13591019 26.99595337 48.13591019 25.9375 48.1328125 C25.23101318 48.13376923 24.52452637 48.13472595 23.79663086 48.13571167 C22.30029207 48.13639333 20.80395033 48.13454005 19.30761719 48.13037109 C17.00969843 48.12502257 14.71197514 48.13031651 12.4140625 48.13671875 C10.96354123 48.13605797 9.51302009 48.1347768 8.0625 48.1328125 C7.0250061 48.13584885 7.0250061 48.13584885 5.96655273 48.13894653 C1.11495224 48.11495224 1.11495224 48.11495224 0 47 C-0.09304018 45.52645652 -0.11746265 44.04849409 -0.11352539 42.57202148 C-0.11344986 41.63112167 -0.11337433 40.69022186 -0.11329651 39.72080994 C-0.10813522 38.69790359 -0.10297394 37.67499725 -0.09765625 36.62109375 C-0.0962413 35.57929459 -0.09482635 34.53749542 -0.09336853 33.46412659 C-0.0877508 30.12188906 -0.0751953 26.77971743 -0.0625 23.4375 C-0.05748728 21.17773534 -0.05292398 18.91796963 -0.04882812 16.65820312 C-0.03862456 11.10542266 -0.01905264 5.55278548 0 0 Z " fill="#439181" transform="translate(597,813)"/>
<path d="M0 0 C10.89 0 21.78 0 33 0 C33 1.98 33 3.96 33 6 C24.42 6 15.84 6 7 6 C7 10.62 7 15.24 7 20 C14.59 20 22.18 20 30 20 C31 25 31 25 30 27 C22.41 27 14.82 27 7 27 C7 31.62 7 36.24 7 41 C15.58 41 24.16 41 33 41 C33 43.31 33 45.62 33 48 C22.11 48 11.22 48 0 48 C0 32.16 0 16.32 0 0 Z " fill="#439181" transform="translate(1503,813)"/>
<path d="M0 0 C24 0 24 0 32 3 C36.14262379 7.23076472 38.12762236 10.40777885 38.25 16.3125 C38.16978382 21.26183812 37.15523961 24.82709449 33.5703125 28.44140625 C29.62785448 31.88370168 26.70085341 33.13222049 21.55078125 33.09765625 C20.70322266 33.09443359 19.85566406 33.09121094 18.98242188 33.08789062 C18.10134766 33.07951172 17.22027344 33.07113281 16.3125 33.0625 C15.41982422 33.05798828 14.52714844 33.05347656 13.60742188 33.04882812 C11.40491927 33.03705004 9.20245115 33.01911481 7 33 C7 37.95 7 42.9 7 48 C4.69 48 2.38 48 0 48 C0 32.16 0 16.32 0 0 Z M7 6 C7 12.93 7 19.86 7 27 C9.35125 27.061875 11.7025 27.12375 14.125 27.1875 C14.85348145 27.21481201 15.58196289 27.24212402 16.33251953 27.27026367 C20.99828852 27.32910779 24.05214615 26.44614421 28 24 C30.59848021 20.98241008 31 19.50411384 31 15.5 C29.80941856 11.33296496 28.3754116 9.6689301 25 7 C19.46543267 4.97023841 12.74733686 5.94678392 7 6 Z " fill="#439181" transform="translate(850,813)"/>
<path d="M0 0 C2.31 0 4.62 0 7 0 C7.41830078 0.90008789 7.83660156 1.80017578 8.26757812 2.72753906 C11.10265425 8.81938881 13.94652216 14.90621352 16.84667969 20.96740723 C18.09136875 23.57042663 19.3282288 26.17713155 20.56445312 28.78417969 C21.19913441 30.11780539 21.83727268 31.44979032 22.47851562 32.78027344 C23.42194321 34.73991812 24.35276164 36.70511723 25.28125 38.671875 C25.82845703 39.8175293 26.37566406 40.96318359 26.93945312 42.14355469 C28 45 28 45 27 48 C25.02 48 23.04 48 21 48 C19.02 44.04 17.04 40.08 15 36 C7.41 36 -0.18 36 -8 36 C-9.98 39.96 -11.96 43.92 -14 48 C-15.98 48 -17.96 48 -20 48 C-19.49712547 41.77830423 -17.4169374 36.94842957 -14.74609375 31.34765625 C-14.32578384 30.44752304 -13.90547394 29.54738983 -13.47242737 28.61997986 C-12.13611478 25.76332834 -10.78704142 22.91292204 -9.4375 20.0625 C-8.52584182 18.11953964 -7.61502526 16.17618415 -6.70507812 14.23242188 C-4.47977547 9.4836633 -2.24398225 4.7399579 0 0 Z M3 9 C1.65757579 11.93342898 0.32765933 14.87236252 -1 17.8125 C-1.3815625 18.64587891 -1.763125 19.47925781 -2.15625 20.33789062 C-2.5171875 21.14033203 -2.878125 21.94277344 -3.25 22.76953125 C-3.58515625 23.50792236 -3.9203125 24.24631348 -4.265625 25.00708008 C-5.17288198 27.11517409 -5.17288198 27.11517409 -5 30 C0.94 30 6.88 30 13 30 C10.03 23.07 7.06 16.14 4 9 C3.67 9 3.34 9 3 9 Z " fill="#439181" transform="translate(1030,813)"/>
<path d="M0 0 C1.39154757 0.8053973 2.77395835 1.62836022 4.125 2.5 C3.795 4.15 3.465 5.8 3.125 7.5 C0.77891581 8.32528183 -0.39600374 8.70025264 -2.734375 7.72265625 C-3.35828125 7.33980469 -3.9821875 6.95695313 -4.625 6.5625 C-8.85303205 4.31537926 -12.14373562 3.61059565 -16.875 4.5 C-21.36270712 5.88398267 -24.7605842 7.72405341 -27.3125 11.75 C-29.86228361 17.08860943 -30.61607477 22.01463269 -28.75 27.6875 C-26.53559778 32.76466544 -23.73066756 35.7297229 -18.5625 37.875 C-13.5458157 38.72528548 -9.63025545 38.217054 -4.68359375 36.9296875 C-2.47985235 35.51366558 -2.47985235 35.51366558 -2.265625 32.0234375 C-2.19918219 30.641427 -2.1530748 29.2583219 -2.125 27.875 C-2.08052734 26.81539062 -2.08052734 26.81539062 -2.03515625 25.734375 C-1.96444643 23.99019953 -1.91745965 22.24509173 -1.875 20.5 C0.105 20.5 2.085 20.5 4.125 20.5 C4.125 27.1 4.125 33.7 4.125 40.5 C-4.44064644 45.39465511 -11.56369819 47.26596059 -21.4140625 44.88671875 C-28.05888235 42.29501066 -32.82062913 37.54003368 -36.04296875 31.203125 C-38.07248112 24.60959187 -38.18226585 15.34700964 -35.375 8.9375 C-28.04020027 -3.04354298 -12.11611166 -6.10126593 0 0 Z " fill="#439181" transform="translate(1095.875,815.5)"/>
<path d="M0 0 C10.56 0 21.12 0 32 0 C32 1.98 32 3.96 32 6 C23.09 6 14.18 6 5 6 C5 10.62 5 15.24 5 20 C12.92 20 20.84 20 29 20 C29 22.31 29 24.62 29 27 C21.08 27 13.16 27 5 27 C5 31.62 5 36.24 5 41 C14.24 41 23.48 41 33 41 C33 43.31 33 45.62 33 48 C22.11 48 11.22 48 0 48 C0 32.16 0 16.32 0 0 Z " fill="#439181" transform="translate(1226,813)"/>
<path d="M0 0 C2.31 0 4.62 0 7 0 C10.70930029 7.82480638 14.33552095 15.64924945 17.6015625 23.671875 C18.72637967 26.34881419 19.88937778 28.99559825 21.0859375 31.640625 C21.45275635 32.45297607 21.8195752 33.26532715 22.19750977 34.10229492 C22.93029478 35.71917133 23.66763204 37.33399375 24.40991211 38.9465332 C24.74514893 39.68734131 25.08038574 40.42814941 25.42578125 41.19140625 C25.72911377 41.85342041 26.03244629 42.51543457 26.3449707 43.19750977 C27 45 27 45 27 48 C24.1875 48.25 24.1875 48.25 21 48 C17.11050285 44.68672465 16.62588971 39.87766912 15 35 C7.41 35.33 -0.18 35.66 -8 36 C-9.98 39.96 -11.96 43.92 -14 48 C-15.98 48 -17.96 48 -20 48 C-19.42064751 43.07098877 -17.8480154 38.96552872 -15.76171875 34.51171875 C-15.2786602 33.45776665 -15.2786602 33.45776665 -14.7858429 32.38252258 C-13.75979645 30.14767471 -12.72393839 27.91754458 -11.6875 25.6875 C-11.00258063 24.20148261 -10.31832963 22.71515697 -9.63476562 21.22851562 C-8.33263211 18.39766199 -7.02743202 15.56825523 -5.72021484 12.73974609 C-3.77025067 8.51196181 -1.87345699 4.26223505 0 0 Z M3 9 C1.65757579 11.93342898 0.32765933 14.87236252 -1 17.8125 C-1.3815625 18.64587891 -1.763125 19.47925781 -2.15625 20.33789062 C-2.5171875 21.14033203 -2.878125 21.94277344 -3.25 22.76953125 C-3.58515625 23.50792236 -3.9203125 24.24631348 -4.265625 25.00708008 C-5.17288198 27.11517409 -5.17288198 27.11517409 -5 30 C0.94 30 6.88 30 13 30 C10.08629827 22.95855414 7.13886728 15.94408627 4 9 C3.67 9 3.34 9 3 9 Z " fill="#439181" transform="translate(907,813)"/>
<path d="M0 0 C1.2684375 0.7425 1.2684375 0.7425 2.5625 1.5 C2.2325 3.81 1.9025 6.12 1.5625 8.5 C1.01722656 8.2834375 0.47195313 8.066875 -0.08984375 7.84375 C-6.73868467 5.38879335 -12.69376324 4.12474976 -19.5 6.625 C-21.77724221 8.42399021 -21.77724221 8.42399021 -21.75 11.6875 C-21.646875 12.615625 -21.54375 13.54375 -21.4375 14.5 C-16.43789657 16.8735491 -11.48798785 18.83029762 -6.1875 20.4375 C1.98138046 23.16740648 1.98138046 23.16740648 4.5625 27.5 C5.39904914 32.58836769 5.40375282 36.88479459 3 41.5 C-3.08939291 46.49642495 -8.39492276 47.02812588 -16.12890625 46.8671875 C-20.8773323 46.34020751 -26.91883909 45.01866091 -30.4375 41.5 C-30.15019945 39.16055264 -29.81813221 36.8260857 -29.4375 34.5 C-25.93124651 35.1493062 -23.47207721 36.67925367 -20.4375 38.5 C-15.61411703 40.26857375 -10.83099854 40.01611057 -6.0625 38.25 C-3.39083577 36.74758637 -3.39083577 36.74758637 -2.3125 34.5625 C-2.25621801 32.37261013 -2.25621801 32.37261013 -3.88671875 30.5546875 C-7.98343458 27.25472958 -12.79381891 26.29373048 -17.79492188 24.87695312 C-22.82938668 23.34617551 -26.17824887 21.87578666 -29.4375 17.5 C-30.50626768 13.18092121 -30.44358434 8.57787215 -28.48046875 4.5234375 C-22.26382213 -3.48912926 -8.77457194 -3.80171392 0 0 Z " fill="#439181" transform="translate(1470.4375,814.5)"/>
<path d="M0 0 C1.2684375 0.7425 1.2684375 0.7425 2.5625 1.5 C2.2325 3.81 1.9025 6.12 1.5625 8.5 C1.01722656 8.2834375 0.47195313 8.066875 -0.08984375 7.84375 C-6.73868467 5.38879335 -12.69376324 4.12474976 -19.5 6.625 C-21.77724221 8.42399021 -21.77724221 8.42399021 -21.75 11.6875 C-21.646875 12.615625 -21.54375 13.54375 -21.4375 14.5 C-16.43789657 16.8735491 -11.48798785 18.83029762 -6.1875 20.4375 C1.98138046 23.16740648 1.98138046 23.16740648 4.5625 27.5 C5.39904914 32.58836769 5.40375282 36.88479459 3 41.5 C-3.08939291 46.49642495 -8.39492276 47.02812588 -16.12890625 46.8671875 C-20.8773323 46.34020751 -26.91883909 45.01866091 -30.4375 41.5 C-30.15019945 39.16055264 -29.81813221 36.8260857 -29.4375 34.5 C-25.93124651 35.1493062 -23.47207721 36.67925367 -20.4375 38.5 C-15.61411703 40.26857375 -10.83099854 40.01611057 -6.0625 38.25 C-3.39083577 36.74758637 -3.39083577 36.74758637 -2.3125 34.5625 C-2.25621801 32.37261013 -2.25621801 32.37261013 -3.88671875 30.5546875 C-7.98343458 27.25472958 -12.79381891 26.29373048 -17.79492188 24.87695312 C-22.82938668 23.34617551 -26.17824887 21.87578666 -29.4375 17.5 C-30.50626768 13.18092121 -30.44358434 8.57787215 -28.48046875 4.5234375 C-22.26382213 -3.48912926 -8.77457194 -3.80171392 0 0 Z " fill="#439181" transform="translate(1003.4375,814.5)"/>
<path d="M0 0 C2.31 0 4.62 0 7 0 C7.0093457 0.96824707 7.01869141 1.93649414 7.02832031 2.93408203 C7.06836783 6.54635647 7.13416554 10.15779235 7.20751953 13.76953125 C7.23564413 15.3289915 7.25690089 16.88859204 7.27099609 18.44824219 C7.29254542 20.69799173 7.33925057 22.94606974 7.390625 25.1953125 C7.39185364 25.8861795 7.39308228 26.57704651 7.39434814 27.28884888 C7.54313822 32.27073283 8.88155226 35.15365994 12 39 C15.4557349 40.84603953 19.18025639 41.34229342 23.03515625 40.6171875 C25.99425778 39.52401623 27.8657103 38.16114764 29.875 35.75 C32.82556419 28.53750977 32.30729326 20.23125336 32.5625 12.5625 C32.62727539 10.74975586 32.62727539 10.74975586 32.69335938 8.90039062 C32.79889404 5.93369394 32.90100714 2.96692098 33 0 C34.98 0 36.96 0 39 0 C39.074557 4.71391399 39.12879273 9.42747929 39.16479492 14.1418457 C39.17981466 15.74314356 39.20023663 17.34440075 39.22631836 18.94555664 C39.26300438 21.25677571 39.27979435 23.56744756 39.29296875 25.87890625 C39.30845261 26.58648575 39.32393646 27.29406525 39.33988953 28.02308655 C39.34181739 33.81006123 38.14218096 38.50493076 34.31640625 42.9609375 C33.73761719 43.42757812 33.15882812 43.89421875 32.5625 44.375 C31.69818359 45.09816406 31.69818359 45.09816406 30.81640625 45.8359375 C25.88381391 48.99703969 19.63281997 48.43943986 14 48 C8.88564138 46.79045895 5.29818783 44.05205933 2 40 C0.01925046 35.30313799 -0.26811467 31.00332177 -0.1953125 25.9765625 C-0.1924826 25.23038666 -0.18965271 24.48421082 -0.18673706 23.71542358 C-0.17561687 21.35178012 -0.15052821 18.98852732 -0.125 16.625 C-0.11495962 15.01432842 -0.10583562 13.40365085 -0.09765625 11.79296875 C-0.0757044 7.86183056 -0.04123185 3.93098133 0 0 Z " fill="#439181" transform="translate(1321,813)"/>
<path d="M0 0 C1.546875 0.99 1.546875 0.99 3.125 2 C2.465 3.98 1.805 5.96 1.125 8 C0.01125 7.505 -1.1025 7.01 -2.25 6.5 C-7.02571512 4.71548012 -11.82726989 4.12437335 -16.875 5 C-19.18749084 6.21817018 -19.18749084 6.21817018 -20.875 8 C-21.20897787 11.12586875 -21.20897787 11.12586875 -20.875 14 C-16.02530005 16.25121874 -11.20142906 18.24994896 -6.125 19.9375 C-1.6358639 21.58708437 1.52422616 22.78495274 4.125 27 C4.96861043 32.08467013 4.96434332 36.38846083 2.5625 41 C-3.28042879 45.79419798 -8.36954806 46.53538808 -15.7890625 46.3671875 C-20.43093067 45.81486395 -26.442481 44.432519 -29.875 41 C-29.58769945 38.66055264 -29.25563221 36.3260857 -28.875 34 C-25.36874651 34.6493062 -22.90957721 36.17925367 -19.875 38 C-15.37897314 39.64854318 -10.62184595 39.37974912 -6 38.375 C-3.57674028 37.1183817 -3.57674028 37.1183817 -2.875 34.0625 C-2.5618171 31.06443312 -2.5618171 31.06443312 -4.12158203 29.39575195 C-6.06184102 27.85127122 -7.54994731 27.27054779 -9.9296875 26.60546875 C-10.70957031 26.37150391 -11.48945313 26.13753906 -12.29296875 25.89648438 C-13.92067945 25.42680315 -15.55090389 24.9657409 -17.18359375 24.51367188 C-22.85389121 22.79016301 -25.67341925 21.06281717 -28.875 16 C-29.92241874 11.95819594 -29.81289301 7.86812976 -27.91796875 4.09375 C-21.65728648 -4.01532418 -8.66227665 -4.36987838 0 0 Z " fill="#439181" transform="translate(463.875,815)"/>
<path d="M0 0 C2.00454732 1.51746105 2.72405841 2.96378472 3.671875 5.265625 C2.484375 6.828125 2.484375 6.828125 0.671875 8.265625 C-2.47235008 8.09566689 -4.43135608 7.20952115 -7.203125 5.703125 C-12.18931878 3.40947586 -15.79860986 3.76457694 -20.953125 5.453125 C-25.30479554 7.79013325 -28.19223482 10.26429468 -30.640625 14.578125 C-31.92082743 19.58255267 -31.90103051 23.64239273 -30.203125 28.453125 C-26.72938027 33.66374209 -22.50888127 37.02947375 -16.328125 38.265625 C-10.41720616 38.36057952 -7.20892232 36.59344135 -2.328125 33.265625 C-0.078125 33.265625 -0.078125 33.265625 1.671875 34.265625 C2.921875 36.328125 2.921875 36.328125 3.671875 38.265625 C-3.01135024 44.31235259 -8.32889489 45.69444639 -17.359375 45.515625 C-24.39537372 44.92311984 -29.31581778 42.27793222 -34.328125 37.265625 C-36.9903858 33.55717226 -38.89170176 29.84806907 -39.328125 25.265625 C-39.39128906 24.61980469 -39.45445312 23.97398437 -39.51953125 23.30859375 C-39.90850837 16.14388611 -38.25921709 9.64573545 -33.4921875 4.1484375 C-24.25310186 -4.38267223 -11.28276705 -5.3444686 0 0 Z " fill="#439181" transform="translate(566.328125,815.734375)"/>
<path d="M0 0 C3.1015625 -0.61328125 3.1015625 -0.61328125 7 0 C9.70472177 2.92946269 11.48416497 6.32043885 13.375 9.8125 C13.90738281 10.74126953 14.43976562 11.67003906 14.98828125 12.62695312 C18.75438399 19.26315198 18.75438399 19.26315198 20 23 C22.98911174 20.50790684 24.7405316 17.83877377 26.55078125 14.453125 C27.00259766 13.60878906 27.45441406 12.76445313 27.91992188 11.89453125 C28.85224116 10.12403993 29.76884551 8.34518832 30.66992188 6.55859375 C31.97741266 4.15073944 33.16653991 2.03807957 35 0 C38.85546875 -0.578125 38.85546875 -0.578125 42 0 C41.41442431 4.28570662 39.89331421 7.24135504 37.65625 10.921875 C36.65271484 12.58283203 36.65271484 12.58283203 35.62890625 14.27734375 C34.91930082 15.43491422 34.20966505 16.59246608 33.5 17.75 C32.78972043 18.9227872 32.08007825 20.09596069 31.37109375 21.26953125 C26.18205915 29.81794085 26.18205915 29.81794085 25 31 C24.76298761 33.85877909 24.57780818 36.69883297 24.4375 39.5625 C24.39431641 40.36880859 24.35113281 41.17511719 24.30664062 42.00585938 C24.20024738 44.00368805 24.09959112 46.0018207 24 48 C22.02 48 20.04 48 18 48 C18.1134375 47.15824219 18.226875 46.31648437 18.34375 45.44921875 C18.86022308 33.01512942 13.1805099 24.3647976 6.72851562 14.23120117 C6.18390686 13.37315384 6.18390686 13.37315384 5.6282959 12.49777222 C4.61972975 10.92147609 3.59357102 9.35647661 2.56640625 7.79223633 C1.05663467 5.10095554 0.39452818 3.0377975 0 0 Z " fill="#439181" transform="translate(930,813)"/>
<path d="M0 0 C12.87 0 25.74 0 39 0 C39 1.98 39 3.96 39 6 C33.72 6 28.44 6 23 6 C23.00785522 7.85516235 23.00785522 7.85516235 23.01586914 9.74780273 C23.03391561 14.31924725 23.04543071 18.89068859 23.05493164 23.4621582 C23.05997267 25.44393441 23.06680538 27.42570689 23.07543945 29.4074707 C23.08751515 32.24952109 23.09323045 35.09152247 23.09765625 37.93359375 C23.10281754 38.82525742 23.10797882 39.71692108 23.11329651 40.63560486 C23.11349177 42.75740601 23.0621003 44.8791078 23 47 C22.67 47.33 22.34 47.66 22 48 C20.02 48 18.04 48 16 48 C16 34.14 16 20.28 16 6 C10.72 6 5.44 6 0 6 C0 4.02 0 2.04 0 0 Z " fill="#439181" transform="translate(1278,813)"/>
<path d="M0 0 C12.54 0 25.08 0 38 0 C38 1.98 38 3.96 38 6 C32.72 6 27.44 6 22 6 C22 19.86 22 33.72 22 48 C20.02 48 18.04 48 16 48 C16 34.14 16 20.28 16 6 C10.72 6 5.44 6 0 6 C0 4.02 0 2.04 0 0 Z " fill="#439181" transform="translate(633,813)"/>
<path d="M0 0 C2.31 0 4.62 0 7 0 C7.02526945 6.6752034 7.04283268 13.35039457 7.05493164 20.02563477 C7.05997325 22.29842591 7.06680637 24.5712138 7.07543945 26.84399414 C7.08751261 30.10303551 7.09322987 33.36203417 7.09765625 36.62109375 C7.10281754 37.64400009 7.10797882 38.66690643 7.11329651 39.72080994 C7.11337204 40.66170975 7.11344757 41.60260956 7.11352539 42.57202148 C7.115746 43.40475082 7.11796661 44.23748016 7.12025452 45.09544373 C7 47 7 47 6 48 C4.02 48 2.04 48 0 48 C0 32.16 0 16.32 0 0 Z " fill="#439181" transform="translate(1484,813)"/>
<path d="M0 0 C2.31 0 4.62 0 7 0 C7 15.84 7 31.68 7 48 C5.02 48 3.04 48 1 48 C0 47 0 47 -0.12025452 45.09544373 C-0.11803391 44.26271439 -0.11581329 43.42998505 -0.11352539 42.57202148 C-0.11344986 41.63112167 -0.11337433 40.69022186 -0.11329651 39.72080994 C-0.10813522 38.69790359 -0.10297394 37.67499725 -0.09765625 36.62109375 C-0.0962413 35.57929459 -0.09482635 34.53749542 -0.09336853 33.46412659 C-0.0877508 30.12188906 -0.0751953 26.77971743 -0.0625 23.4375 C-0.05748728 21.17773534 -0.05292398 18.91796963 -0.04882812 16.65820312 C-0.03777561 11.10544609 -0.02102024 5.55272775 0 0 Z " fill="#439181" transform="translate(1424,813)"/>
<path d="M0 0 C2.31 0 4.62 0 7 0 C7.02526945 6.6752034 7.04283268 13.35039457 7.05493164 20.02563477 C7.05997325 22.29842591 7.06680637 24.5712138 7.07543945 26.84399414 C7.08751261 30.10303551 7.09322987 33.36203417 7.09765625 36.62109375 C7.10281754 37.64400009 7.10797882 38.66690643 7.11329651 39.72080994 C7.11337204 40.66170975 7.11344757 41.60260956 7.11352539 42.57202148 C7.115746 43.40475082 7.11796661 44.23748016 7.12025452 45.09544373 C7 47 7 47 6 48 C4.02 48 2.04 48 0 48 C0 32.16 0 16.32 0 0 Z " fill="#439181" transform="translate(578,813)"/>
<path d="M0 0 C2.05078125 0.03255208 4.1015625 0.06510417 6.15234375 0.09765625 C5.59735451 3.69336118 4.44376186 5.13600934 1.58984375 7.34765625 C-2.7476046 10.4693641 -5.61238658 10.658578 -10.84765625 10.09765625 C-10.84765625 9.43765625 -10.84765625 8.77765625 -10.84765625 8.09765625 C-9.1328125 6.40625 -9.1328125 6.40625 -6.91015625 4.53515625 C-5.81380859 3.60509766 -5.81380859 3.60509766 -4.6953125 2.65625 C-4.08558594 2.14191406 -3.47585938 1.62757813 -2.84765625 1.09765625 C-1.84765625 0.09765625 -1.84765625 0.09765625 0 0 Z " fill="#439181" transform="translate(698.84765625,800.90234375)"/>
<path d="M0 0 C0 3 0 3 -1.72265625 4.82421875 C-8.81533622 10.47231282 -8.81533622 10.47231282 -13.0625 10.4375 C-14.031875 10.293125 -15.00125 10.14875 -16 10 C-12.83378622 2.89532517 -7.95235391 -0.97375762 0 0 Z " fill="#439181" transform="translate(625,801)"/>
</svg>
